<?xml version="1.0" encoding="iso-8859-1"?>
<!-- Generator: Adobe Illustrator 19.0.0, SVG Export Plug-In . SVG Version: 6.00 Build 0)  -->
<svg version="1.1" id="Layer_1" xmlns="http://www.w3.org/2000/svg" xmlns:xlink="http://www.w3.org/1999/xlink" x="0px" y="0px"
	 viewBox="0 0 511.998 511.998" style="enable-background:new 0 0 511.998 511.998;" xml:space="preserve">
<g>
	<g>
		<path d="M390.597,208.894h-41.893v-54.559c0-4.147-3.361-7.509-7.509-7.509c-4.148,0-7.509,3.361-7.509,7.509v54.559h-20.243
			V90.814c0-31.675-25.771-57.445-57.445-57.445c-31.675,0-57.445,25.771-57.445,57.445v118.08H178.31V92.704
			c0-42.838,34.851-77.688,77.688-77.688c42.838,0,77.688,34.85,77.688,77.688v11.576c0,4.147,3.361,7.509,7.509,7.509
			c4.148,0,7.509-3.361,7.509-7.509V92.704C348.704,41.587,307.116,0,255.999,0c-51.117,0-92.704,41.587-92.704,92.704v116.19
			h-41.894c-17.992,0-32.63,14.638-32.63,32.63v164.592c0,4.147,3.362,7.509,7.509,7.509s7.509-3.361,7.509-7.509V241.525
			c0-9.713,7.902-17.614,17.614-17.614h49.401h35.259h99.874h35.259h49.401c9.713,0,17.615,7.902,17.615,17.614V479.37
			c0,9.713-7.903,17.614-17.615,17.614h-64.397v-32.137c0-1.667-0.554-3.287-1.577-4.604l-35.663-45.952h16.291
			c2.275,0,4.428-1.031,5.853-2.806c1.425-1.773,1.969-4.098,1.479-6.321l-8.322-37.711h0.989c3.776,0,6.964-2.804,7.447-6.548
			l11.249-87.273c0.455-3.527-1.627-6.89-4.987-8.054c-3.36-1.165-7.076,0.188-8.903,3.238l-32.009,53.486l-41.943,13.25
			c-2.422,0.765-4.292,2.702-4.972,5.148c-0.68,2.447-0.077,5.071,1.602,6.977l22.375,25.381l-30.897,36.912
			c-2.577,3.079-2.277,7.64,0.682,10.353l38.185,35.023l-37.359,41.634h-104.32c-9.713,0-17.614-7.902-17.614-17.614v-20.529
			c0-4.147-3.362-7.509-7.509-7.509s-7.509,3.361-7.509,7.509v20.529c0,17.992,14.638,32.63,32.63,32.63h269.196
			c17.993,0,32.631-14.638,32.631-32.63V241.525C423.228,223.533,408.59,208.894,390.597,208.894z M298.428,208.894h-84.858V90.814
			c0-23.396,19.033-42.429,42.429-42.429s42.429,19.033,42.429,42.429V208.894z M311.187,495.984h-64.389l32.419-36.133
			c2.748-3.062,2.519-7.767-0.513-10.547l-38.37-35.193l30.432-36.356c2.382-2.845,2.328-7.002-0.125-9.786L251.628,346.4
			l33.664-10.635c1.75-0.552,3.238-1.729,4.181-3.304l14.98-25.03l-5.802,45.008h-3.732c-2.275,0-4.428,1.031-5.853,2.806
			c-1.425,1.774-1.969,4.098-1.479,6.321l8.322,37.711h-22.277c-2.867,0-5.483,1.632-6.743,4.206
			c-1.261,2.574-0.946,5.642,0.811,7.906l43.486,56.032V495.984z"/>
	</g>
</g>
<g>
</g>
<g>
</g>
<g>
</g>
<g>
</g>
<g>
</g>
<g>
</g>
<g>
</g>
<g>
</g>
<g>
</g>
<g>
</g>
<g>
</g>
<g>
</g>
<g>
</g>
<g>
</g>
<g>
</g>
</svg>
